<svg id="fd92843c-3beb-438a-ab91-1a571beb8463" data-name="Layer 1" xmlns="http://www.w3.org/2000/svg" viewBox="0 0 286.5 163.5"><defs><style>.b411faeb-6c74-4158-a21d-0a3f0f14b90c{fill:#f5ac00;}.ed3dac6e-3a50-44ea-90aa-0e56e1205395{fill:#222;}</style></defs><path class="b411faeb-6c74-4158-a21d-0a3f0f14b90c" d="M22.33,126l6.8-5.22c-.32-.47-.64-.93-.94-1.4a61.68,61.68,0,0,1-4.71-8.82,60.26,60.26,0,0,1-3.28-9.41,65,65,0,0,1-2.05-19.73A63.7,63.7,0,0,1,31.7,44.87a63.87,63.87,0,0,1,70.66-21.26A63.75,63.75,0,0,1,130.73,42.8l9.11-7a72.36,72.36,0,0,0-13.4-12.53,76.78,76.78,0,0,0-9.83-6.06c-1.75-.81-3.45-1.73-5.25-2.42l-2.68-1.08-2.74-.94a75.14,75.14,0,0,0-45.44-.31,74.23,74.23,0,0,0-37,26.09,75.91,75.91,0,0,0-6.2,9.63,79.28,79.28,0,0,0-4.62,10.47A73.59,73.59,0,0,0,21,124.1C21.43,124.74,21.88,125.37,22.33,126Z"/><path class="ed3dac6e-3a50-44ea-90aa-0e56e1205395" d="M125.8,134.51a69.84,69.84,0,0,1-8.42,5.89,66.47,66.47,0,0,1-58.79,4.35,61.57,61.57,0,0,1-9-4.54,64.67,64.67,0,0,1-8.2-5.82,71.45,71.45,0,0,1-6.74-6.51L28,133a72.5,72.5,0,0,0,71.91,20.9,71.39,71.39,0,0,0,36.68-23.63l-3.33-2.86A73.83,73.83,0,0,1,125.8,134.51Z"/><polygon class="ed3dac6e-3a50-44ea-90aa-0e56e1205395" points="70.77 88.68 97.48 88.68 97.48 79.07 70.77 79.07 70.77 66.45 100.91 66.45 100.91 56.85 60.17 56.85 60.17 111.36 101.29 111.36 101.29 101.75 70.77 101.75 70.77 88.68"/><path class="ed3dac6e-3a50-44ea-90aa-0e56e1205395" d="M208.87,82.93a13,13,0,0,0,6.78-11.84c0-8.65-7.11-14.24-18.12-14.24H173v54.51h25.28c11.25,0,18.51-6,18.51-15.31C216.8,89.6,214.14,85.2,208.87,82.93ZM183.46,79.3V66.38h12.85c5.64,0,8.75,2.21,8.75,6.23,0,5.82-5.91,6.69-9.44,6.69Zm14.9,22.53h-14.9V88.45h14.22c8,0,9.13,3.34,9.13,6.61C206.81,99.74,204.21,101.83,198.36,101.83Z"/><path class="ed3dac6e-3a50-44ea-90aa-0e56e1205395" d="M250.5,56.42c-16,0-28.06,11.93-28.06,27.76s12,27.61,27.91,27.61S278.41,99.86,278.41,84,266.41,56.42,250.5,56.42Zm17,27.76c0,10.22-7.32,17.93-17,17.93S233.32,94.34,233.32,84s7.32-17.93,17-17.93S267.53,73.87,267.53,84.18Z"/><polygon class="ed3dac6e-3a50-44ea-90aa-0e56e1205395" points="136.92 81.52 121.04 56.85 110.12 56.85 110.12 111.36 120.56 111.36 120.56 74.72 136.85 99.01 136.88 99.01 153.12 74.56 153.12 111.36 163.71 111.36 163.71 56.85 152.79 56.85 136.92 81.52"/></svg>